<!-- Generator: Adobe Illustrator 18.0.0, SVG Export Plug-In  -->
<svg version="1.1"
	 xmlns="http://www.w3.org/2000/svg" xmlns:xlink="http://www.w3.org/1999/xlink" xmlns:a="http://ns.adobe.com/AdobeSVGViewerExtensions/3.0/"
	 x="0px" y="0px" width="338px" height="338px" viewBox="0 0 338 338" enable-background="new 0 0 338 338" xml:space="preserve">
<defs>
</defs>
<path fill="#00FF2A" d="M169,0C75.7,0,0,75.7,0,169s75.7,169,169,169s169-75.7,169-169S262.4,0,169,0z M169,65.4
	c33.1,0,60,26.9,60,60s-26.9,60-60,60s-60-26.9-60-60S135.9,65.4,169,65.4z M169,299.9c-40,0-75.9-18.1-99.8-46.5
	c12.8-24.1,37.9-40.8,67.1-40.8c1.6,0,3.3,0.3,4.8,0.7c8.9,2.9,18.1,4.7,27.9,4.7c9.7,0,19.1-1.8,27.9-4.7c1.6-0.5,3.2-0.7,4.8-0.7
	c29.2,0,54.3,16.6,67.1,40.8C244.9,281.8,209,299.9,169,299.9z"/>
</svg>
