<!-- Generator: Adobe Illustrator 18.0.0, SVG Export Plug-In  -->
<svg version="1.1"
	 xmlns="http://www.w3.org/2000/svg" xmlns:xlink="http://www.w3.org/1999/xlink" xmlns:a="http://ns.adobe.com/AdobeSVGViewerExtensions/3.0/"
	 x="0px" y="0px" width="391px" height="273.7px" viewBox="0 0 391 273.7" enable-background="new 0 0 391 273.7"
	 xml:space="preserve">
<defs>
</defs>
<path fill="#9B9B9B" d="M58.7,117.3c21.6,0,39.1-17.5,39.1-39.1S80.2,39.1,58.7,39.1S19.5,56.6,19.5,78.2S37.1,117.3,58.7,117.3z
	 M332.4,117.3c21.6,0,39.1-17.5,39.1-39.1s-17.5-39.1-39.1-39.1c-21.6,0-39.1,17.5-39.1,39.1S310.8,117.3,332.4,117.3z M351.9,136.9
	h-39.1c-10.8,0-20.5,4.3-27.6,11.4c24.6,13.5,42.1,37.9,45.9,66.8h40.3c10.8,0,19.5-8.7,19.5-19.6v-19.6
	C391,154.4,373.5,136.9,351.9,136.9z M195.5,136.9c37.8,0,68.4-30.6,68.4-68.4S233.3,0,195.5,0s-68.4,30.6-68.4,68.4
	S157.7,136.9,195.5,136.9z M242.4,156.4h-5.1c-12.7,6.1-26.8,9.8-41.8,9.8s-29.1-3.7-41.8-9.8h-5.1c-38.9,0-70.4,31.5-70.4,70.4
	v17.6c0,16.2,13.1,29.3,29.3,29.3h176c16.2,0,29.3-13.1,29.3-29.3v-17.6C312.8,187.9,281.3,156.4,242.4,156.4z M105.8,148.2
	c-7.1-7-16.8-11.4-27.6-11.4H39.1C17.5,136.9,0,154.4,0,175.9v19.6c0,10.8,8.7,19.6,19.5,19.6h40.3
	C63.7,186.1,81.1,161.7,105.8,148.2L105.8,148.2z"/>
</svg>
