<svg xmlns="http://www.w3.org/2000/svg" viewBox="81 128 100 98">
  <defs>
    <style>
      .cls-1, .cls-3 {
        fill: #fff;
      }

      .cls-1 {
        font-size: 11px;
        font-family: ProximaNova-Bold, Proxima Nova;
        font-weight: 700;
        letter-spacing: 0.039em;
      }

      .cls-2 {
        letter-spacing: -0.029em;
      }
    </style>
  </defs>
  <g id="Group_653" data-name="Group 653" transform="translate(-155 105)">
    <text id="JAYA_DIGITAL" data-name="JAYA DIGITAL" class="cls-1" transform="translate(250 118)"><tspan x="0" y="0">J</tspan><tspan class="cls-2" y="0">AY</tspan><tspan y="0">A DIGI</tspan><tspan class="cls-2" y="0">T</tspan><tspan y="0">AL</tspan></text>
    <g id="Group_647" data-name="Group 647">
      <path id="Path_1082" data-name="Path 1082" class="cls-3" d="M14.614,52.321a50.325,50.325,0,0,0,15.951,11.33,46.854,46.854,0,0,0,38.869,0,50.345,50.345,0,0,0,15.951-11.33,53.859,53.859,0,0,0,10.668-16.94,54.387,54.387,0,0,0,3.967-19.723,65.455,65.455,0,0,0-4.111-5.479q.206,2.191.206,4.558a50.39,50.39,0,0,1-3.638,19,49.3,49.3,0,0,1-9.8,15.6A46.026,46.026,0,0,1,67.81,59.75a43.266,43.266,0,0,1-35.745,0,46.047,46.047,0,0,1-14.7-10.409,49.281,49.281,0,0,1-9.8-15.6A50.366,50.366,0,0,1,3.925,14.76q0-2.3.206-4.558A65.475,65.475,0,0,0,.02,15.68,54.364,54.364,0,0,0,3.987,35.4,53.849,53.849,0,0,0,14.614,52.321Z" transform="translate(235.98 35.129)"/>
      <path id="Path_1083" data-name="Path 1083" class="cls-3" d="M7.78,24.436a37.088,37.088,0,0,0,4.563,18.1c6.1,11.195,17.334,18.07,29.476,18.035,12.126.036,23.352-6.82,29.455-17.992a37.089,37.089,0,0,0,4.563-18.123A37.088,37.088,0,0,0,71.275,6.335V6.182A59.858,59.858,0,0,0,63.608,2.5a32.355,32.355,0,0,1,4.111,5.939,32.58,32.58,0,0,1,4.111,16,32.58,32.58,0,0,1-4.111,16A30.982,30.982,0,0,1,56.8,52.026a28.676,28.676,0,0,1-30.134,0A30.96,30.96,0,0,1,15.756,40.433a32.58,32.58,0,0,1-4.111-16,32.58,32.58,0,0,1,4.111-16A32.333,32.333,0,0,1,19.867,2.5a59.9,59.9,0,0,0-7.523,3.66v.153A37.088,37.088,0,0,0,7.78,24.436Z" transform="translate(244.17 25.979)"/>
      <path id="Path_1084" data-name="Path 1084" class="cls-3" d="M9.523,42.619a43.237,43.237,0,0,0,15.313,16.26A39.263,39.263,0,0,0,45.9,64.861a39.263,39.263,0,0,0,21.069-5.983,43.254,43.254,0,0,0,15.252-16.26,45.676,45.676,0,0,0,5.653-22.352,47.97,47.97,0,0,0-.946-9.555A63.068,63.068,0,0,0,81.506,6a42.543,42.543,0,0,1-.576,29.869,40.566,40.566,0,0,1-8.1,12.886,37.92,37.92,0,0,1-12.148,8.59,35.918,35.918,0,0,1-29.579,0,37.9,37.9,0,0,1-12.148-8.59,40.561,40.561,0,0,1-8.058-12.8A42.542,42.542,0,0,1,10.283,6a63,63,0,0,0-5.447,4.712,47.993,47.993,0,0,0-.946,9.555A45.68,45.68,0,0,0,9.523,42.619Z" transform="translate(240.064 30.148)"/>
      <ellipse id="Ellipse_1" data-name="Ellipse 1" class="cls-3" cx="25.817" cy="27.415" rx="25.817" ry="27.415" transform="translate(260.173 23)"/>
    </g>
  </g>
</svg>
