<svg id="Layer_1" data-name="Layer 1" xmlns="http://www.w3.org/2000/svg" viewBox="0 0 48.67 45.05"><defs><style>.cls-1{font-size:6.61px;font-family:ProximaNova-Bold, Proxima Nova;font-weight:700;letter-spacing:0em;}.cls-1,.cls-6{fill:#2f2f2f;}.cls-2{letter-spacing:-0.03em;}.cls-3{letter-spacing:0.04em;}.cls-4{letter-spacing:-0.03em;}.cls-5{letter-spacing:0.04em;}</style></defs><title>eye business cards</title><text class="cls-1" transform="translate(2.14 44.86)">J<tspan class="cls-2" x="3.22" y="0">AY</tspan><tspan class="cls-3" x="11.58" y="0">A DIGI</tspan><tspan class="cls-4" x="32.31" y="0">T</tspan><tspan class="cls-5" x="35.96" y="0">AL</tspan></text><path class="cls-6" d="M7.12,29.41a24.53,24.53,0,0,0,7.76,5.17,24.17,24.17,0,0,0,18.91,0,24.54,24.54,0,0,0,7.76-5.17,24.42,24.42,0,0,0,5.19-7.73,23.49,23.49,0,0,0,1.93-9,30.11,30.11,0,0,0-2-2.5q.1,1,.1,2.08A21.75,21.75,0,0,1,45,20.93a22.35,22.35,0,0,1-4.77,7.12A22.46,22.46,0,0,1,33,32.8a22.32,22.32,0,0,1-17.39,0,22.45,22.45,0,0,1-7.15-4.75,22.34,22.34,0,0,1-4.77-7.12,21.74,21.74,0,0,1-1.77-8.66q0-1.05.1-2.08a30.12,30.12,0,0,0-2,2.5,23.48,23.48,0,0,0,1.93,9A24.41,24.41,0,0,0,7.12,29.41Z"/><path class="cls-6" d="M7.78,12.51A16.1,16.1,0,0,0,10,20.77,16.53,16.53,0,0,0,24.34,29a16.53,16.53,0,0,0,14.33-8.21,16.1,16.1,0,0,0,2.22-8.27,16.1,16.1,0,0,0-2.22-8.27l0-.07A30,30,0,0,0,34.94,2.5a14.78,14.78,0,0,1,2,2.71,14.15,14.15,0,0,1,2,7.3,14.15,14.15,0,0,1-2,7.3,14.56,14.56,0,0,1-5.31,5.29,14.74,14.74,0,0,1-14.66,0,14.55,14.55,0,0,1-5.31-5.29,14.15,14.15,0,0,1-2-7.3,14.15,14.15,0,0,1,2-7.3,14.77,14.77,0,0,1,2-2.71A30,30,0,0,0,10,4.17l0,.07A16.1,16.1,0,0,0,7.78,12.51Z"/><path class="cls-6" d="M6.63,22.71a20.32,20.32,0,0,0,7.45,7.42,20.05,20.05,0,0,0,10.25,2.73,20.05,20.05,0,0,0,10.25-2.73A20.32,20.32,0,0,0,42,22.71a19.83,19.83,0,0,0,2.75-10.2,20.58,20.58,0,0,0-.46-4.36A30.21,30.21,0,0,0,41.65,6a18.29,18.29,0,0,1-.28,13.63,18.39,18.39,0,0,1-3.94,5.88,18.49,18.49,0,0,1-5.91,3.92,18.53,18.53,0,0,1-14.39,0,18.48,18.48,0,0,1-5.91-3.92A18.39,18.39,0,0,1,7.3,19.67,18.29,18.29,0,0,1,7,6,30.19,30.19,0,0,0,4.35,8.15a20.59,20.59,0,0,0-.46,4.36A19.83,19.83,0,0,0,6.63,22.71Z"/><ellipse class="cls-6" cx="24.34" cy="12.51" rx="12.56" ry="12.51"/></svg>
