<svg xmlns="http://www.w3.org/2000/svg" viewBox="0 0 300 346"><g transform="translate(-17.523 -12.5)"><g transform="translate(17.523 12.5)"><path d="M317.514,99,167.521,12.5,17.537,98.991,17.523,99V272l150,86.5,0,0,150-86.491V99Zm-13.025,165.49L167.525,343.461V288.193l-89.04-51.342V134.158l.009-.009,44.9,25.89h0l44.127-25.447,44.132,25.452h0l0,0v50.908L167.525,236.4v51.785l89.04-51.337V134.158l-.009,0,0,0L167.525,82.807,78.495,134.149,30.571,106.51l136.95-78.98,136.954,78.98.014.009Z" transform="translate(-17.523 -12.5)"/><path d="M40.443,44.487V95.395l44.141,25.452V69.938L40.448,44.482Z" transform="translate(65.418 103.062)"/></g></g></svg>