<svg xmlns="http://www.w3.org/2000/svg" xmlns:xlink="http://www.w3.org/1999/xlink" viewBox="0 0 300 304.866"><defs><style>.a{fill:none;}.b{clip-path:url(#a);}.c{fill:#fff;}</style><clipPath id="a"><rect class="a" width="31.137" height="343.642"/></clipPath></defs><g transform="translate(-1187.285 -1615.672)"><g transform="translate(1199.455 1653.1) rotate(-45)"><rect width="52.932" height="353.517" transform="translate(0)"/><g class="b" transform="translate(4.152 4.937)"><g transform="translate(-1318 -1833)"><rect class="c" width="30" height="10" transform="translate(1318 1833)"/><rect class="c" width="15" height="5" transform="translate(1318 1846)"/><rect class="c" width="15" height="5" transform="translate(1318 1886)"/><rect class="c" width="15" height="5" transform="translate(1318 1854)"/><rect class="c" width="15" height="5" transform="translate(1318 1894)"/><rect class="c" width="15" height="5" transform="translate(1318 1862)"/><rect class="c" width="15" height="5" transform="translate(1318 1902)"/><rect class="c" width="15" height="5" transform="translate(1318 1870)"/><rect class="c" width="15" height="5" transform="translate(1318 1910)"/><rect class="c" width="25" height="5" transform="translate(1318 1878)"/></g><g transform="translate(-1318 -1748)"><rect class="c" width="30" height="10" transform="translate(1318 1833)"/><rect class="c" width="15" height="5" transform="translate(1318 1846)"/><rect class="c" width="15" height="5" transform="translate(1318 1886)"/><rect class="c" width="15" height="5" transform="translate(1318 1854)"/><rect class="c" width="15" height="5" transform="translate(1318 1894)"/><rect class="c" width="15" height="5" transform="translate(1318 1862)"/><rect class="c" width="15" height="5" transform="translate(1318 1902)"/><rect class="c" width="15" height="5" transform="translate(1318 1870)"/><rect class="c" width="15" height="5" transform="translate(1318 1910)"/><rect class="c" width="25" height="5" transform="translate(1318 1878)"/></g><g transform="translate(-1318 -1663)"><rect class="c" width="30" height="10" transform="translate(1318 1833)"/><rect class="c" width="15" height="5" transform="translate(1318 1846)"/><rect class="c" width="15" height="5" transform="translate(1318 1886)"/><rect class="c" width="15" height="5" transform="translate(1318 1854)"/><rect class="c" width="15" height="5" transform="translate(1318 1894)"/><rect class="c" width="15" height="5" transform="translate(1318 1862)"/><rect class="c" width="15" height="5" transform="translate(1318 1902)"/><rect class="c" width="15" height="5" transform="translate(1318 1870)"/><rect class="c" width="15" height="5" transform="translate(1318 1910)"/><rect class="c" width="25" height="5" transform="translate(1318 1878)"/></g><g transform="translate(-1318 -1578)"><rect class="c" width="30" height="10" transform="translate(1318 1833)"/><rect class="c" width="15" height="5" transform="translate(1318 1846)"/><rect class="c" width="15" height="5" transform="translate(1318 1886)"/><rect class="c" width="15" height="5" transform="translate(1318 1854)"/><rect class="c" width="15" height="5" transform="translate(1318 1894)"/><rect class="c" width="15" height="5" transform="translate(1318 1862)"/><rect class="c" width="15" height="5" transform="translate(1318 1902)"/><rect class="c" width="15" height="5" transform="translate(1318 1870)"/><rect class="c" width="15" height="5" transform="translate(1318 1910)"/><rect class="c" width="25" height="5" transform="translate(1318 1878)"/></g><g transform="translate(-1318 -1493)"><rect class="c" width="30" height="10" transform="translate(1318 1833)"/><rect class="c" width="15" height="5" transform="translate(1318 1846)"/><rect class="c" width="15" height="5" transform="translate(1318 1886)"/><rect class="c" width="15" height="5" transform="translate(1318 1854)"/><rect class="c" width="15" height="5" transform="translate(1318 1894)"/><rect class="c" width="15" height="5" transform="translate(1318 1862)"/><rect class="c" width="15" height="5" transform="translate(1318 1902)"/><rect class="c" width="15" height="5" transform="translate(1318 1870)"/><rect class="c" width="15" height="5" transform="translate(1318 1910)"/><rect class="c" width="25" height="5" transform="translate(1318 1878)"/></g></g></g><g transform="translate(1187.285 1619.538)"><path d="M0,67.138,24.082,0h5.108L52.932,67.138s-30.126-86.327,0,.028V371.332H0V67.138Z" transform="translate(37.429 301) rotate(-135)"/><rect class="c" width="280" height="10" transform="translate(66.002 228.124) rotate(-45)"/></g></g></svg>