<svg xmlns="http://www.w3.org/2000/svg" viewBox="0 0 224.984 299.917"><g transform="translate(-14.182 -2.306)"><path d="M204.564,239.409a55.311,55.311,0,0,1-11.306-33.291V152.412a90.68,90.68,0,0,0,21.985-66.9C211.787,41.546,175.983,6.057,132.014,2.6A90.738,90.738,0,0,0,34.025,87.086v2.2c0,8.166-3.141,21.043-6.91,28.266-4.083,7.538-8.166,15.075-11.621,20.414a7.892,7.892,0,0,0,6.6,12.249H34.025v43.655a16.085,16.085,0,0,0,16.017,16.017H83.019v16.646a41.772,41.772,0,0,1-12.563,30.151l-25.125,25.44c-7.224,7.538-2.2,20.1,8.166,20.1H226.548c10.364,0,16.332-11.935,10.05-20.414ZM124.79,148.015a54.648,54.648,0,1,1,54.648-54.648A54.687,54.687,0,0,1,124.79,148.015Zm6.281-76.633h12.563V85.2H126.361l25.44,25.44-9.736,9.736-25.44-25.44v17.274H102.806V71.069h13.819Z" transform="translate(0)"/></g></svg>