<svg xmlns="http://www.w3.org/2000/svg" viewBox="0 0 300 245.738"><g transform="translate(-6.123 -13.321)"><rect width="108" height="153" transform="translate(188 81.321)"/><path d="M306.123,35.528H275.978V13.321h-5.373V35.528H229.114V13.321h-5.373V35.528H182.249V13.321h-5.373V35.528H135.363V13.321H129.99V35.528H88.5V13.321H83.125V35.528H41.633V13.321H36.261V35.528H6.123V259.06h300ZM140.61,213.492H26.063v-30.3H140.61Zm0-47.946H26.063V88.668H140.61Zm104.872,30.1L231.7,211.31l-3.772,7.4-11.58-1.744-8.26-5.505-3.861,9.925-3.843-8.657-3.46,4.789-7.525-2.246.77-2.575.77-2.575,3.865,1.153,6.7-9.266,2.4,5.4,1.608-4.126,11.186,7.457,1.64,1.092,6.565.989,1.422-2.794.43-.842-.491-20.52.172-.476,37.91-104.342,19.224,6.988Z" transform="translate(0 0)"/><path d="M116.992,35.857H13.19v66.131h103.8ZM55.1,88.492l-18.787-18.1,1.866-1.934,1.866-1.934L41.168,67.6,55.3,81.217,85.865,54.755l4.391-3.8,1.759,2.031,1.759,2.031Z" transform="translate(18.246 58.184)"/><rect width="103.802" height="19.557" transform="translate(31.432 188.562)"/></g></svg>