<!-- Generator: Adobe Illustrator 18.0.0, SVG Export Plug-In  -->
<svg version="1.1"
	 xmlns="http://www.w3.org/2000/svg" xmlns:xlink="http://www.w3.org/1999/xlink" xmlns:a="http://ns.adobe.com/AdobeSVGViewerExtensions/3.0/"
	 x="0px" y="0px" width="305.3px" height="348.9px" viewBox="0 0 305.3 348.9" enable-background="new 0 0 305.3 348.9"
	 xml:space="preserve">
<defs>
</defs>
<path fill="#00F3FF" d="M261.6,210.1l16.3-42.7c2.7-7.2-2.5-14.8-10.2-14.8h-39.9C235.3,139.8,240,125,240,109v-0.2
	c26.7-5.3,43.6-13,43.6-21.6c0-9.1-18.6-17.1-47.8-22.5c-6.3-22.4-18.4-44.8-27.7-56.4c-6.5-8.1-17.7-10.6-26.9-6l-18.8,9.4
	c-6.1,3.1-13.4,3.1-19.5,0l-18.8-9.4c-9.3-4.6-20.4-2.1-26.9,6C88,19.9,75.8,42.4,69.5,64.7c-29.1,5.4-47.7,13.4-47.7,22.5
	c0,8.6,16.9,16.3,43.6,21.6v0.2c0,15.9,4.6,30.7,12.1,43.6H38.4c-7.8,0-13.1,8-10,15.2l17.6,41C18.6,224.8,0,254,0,287.9v30.5
	c0,16.8,13.7,30.5,30.5,30.5h244.3c16.8,0,30.5-13.7,30.5-30.5v-30.5C305.3,254.9,287.8,226.3,261.6,210.1L261.6,210.1z M120,327.1
	L91.6,196.3l33.8,21.8l16.4,27.3L120,327.1z M185.4,327.1l-21.8-81.8l16.4-27.3l33.8-21.8L185.4,327.1z M213.8,123.7
	c-2.7,8.1-4.8,16.8-11.2,22.8c-6.9,6.3-32.7,15.3-43.6-17c-1.9-5.7-10.5-5.7-12.5,0c-11.6,34.2-38.2,22.1-43.6,17
	c-6.5-6-8.7-14.7-11.2-22.8c-0.5-1.7-4.3-3.9-4.3-4v-7.4c19.3,2.5,41.6,4,65.4,4s46.1-1.4,65.4-4v7.4
	C218.1,119.8,214.3,121.9,213.8,123.7z"/>
</svg>
