<!-- Generator: Adobe Illustrator 18.0.0, SVG Export Plug-In  -->
<svg version="1.1"
	 xmlns="http://www.w3.org/2000/svg" xmlns:xlink="http://www.w3.org/1999/xlink" xmlns:a="http://ns.adobe.com/AdobeSVGViewerExtensions/3.0/"
	 x="0px" y="0px" width="430.9px" height="301.6px" viewBox="0 0 430.9 301.6" enable-background="new 0 0 430.9 301.6"
	 xml:space="preserve">
<defs>
</defs>
<path fill="#7C00FF" d="M411.1,208.2c1.8-9.5,1.8-19.2,0-28.7l17.4-10c2-1.1,2.9-3.5,2.2-5.7c-4.5-14.5-12.3-27.7-22.4-38.6
	c-1.5-1.7-4-2.1-6.1-0.9l-17.4,10c-7.3-6.3-15.8-11.1-24.8-14.3V99.8c0-2.3-1.6-4.3-3.8-4.8c-15-3.4-30.3-3.2-44.6,0
	c-2.2,0.5-3.8,2.5-3.8,4.8v20.1c-9.1,3.2-17.5,8.1-24.8,14.3l-17.4-10c-2-1.1-4.5-0.7-6.1,0.9c-10.1,10.9-17.8,24.1-22.4,38.6
	c-0.7,2.2,0.3,4.6,2.2,5.7l17.4,10c-1.8,9.5-1.8,19.2,0,28.7l-17.4,10c-2,1.1-2.9,3.5-2.2,5.7c4.5,14.5,12.3,27.7,22.4,38.6
	c1.5,1.7,4,2.1,6.1,0.9l17.4-10c7.3,6.3,15.8,11.1,24.8,14.3v20.1c0,2.3,1.6,4.3,3.8,4.8c15,3.4,30.3,3.2,44.6,0
	c2.2-0.5,3.8-2.5,3.8-4.8v-20.1c9.1-3.2,17.5-8.1,24.8-14.3l17.4,10c2,1.1,4.5,0.7,6.1-0.9c10.1-10.9,17.8-24.1,22.4-38.6
	c0.7-2.2-0.3-4.6-2.2-5.7L411.1,208.2z M334,226.5c-18,0-32.7-14.7-32.7-32.7s14.7-32.7,32.7-32.7c18,0,32.7,14.7,32.7,32.7
	S352,226.5,334,226.5z M64.6,129.2c23.8,0,43.1-19.3,43.1-43.1S88.4,43,64.6,43S21.5,62.3,21.5,86.1S40.9,129.2,64.6,129.2z
	 M215.5,150.8c1.3,0,2.5-0.3,3.8-0.4c5.6-14.6,13.8-28.3,24.4-39.9c5-5.4,12.1-8.5,19.5-8.5c4.6,0,9.2,1.2,13.2,3.6l5.3,3.1
	c0.5-0.3,1.1-0.6,1.6-0.9c4.7-9.8,7.5-20.7,7.5-32.3c0-41.7-33.7-75.4-75.4-75.4S140,33.7,140,75.3S173.8,150.8,215.5,150.8z
	 M286.3,281.7c-1.5-0.8-3.1-1.8-4.6-2.6c-5.5,3.2-10.3,6.6-18.5,6.6c-7.3,0-14.4-3.1-19.5-8.5c-12.3-13.3-21.7-29.6-27.1-46.9
	c-7.2-23.2,16.8-33.5,17.4-33.9c-0.1-1.8-0.1-3.5,0-5.3l-5.3-3.1c-2.6-1.5-4.7-3.4-6.6-5.5c-2.2,0.1-4.4,0.4-6.6,0.4
	c-16.6,0-32-4-46.1-10.8h-5.6c-42.9,0-77.6,34.7-77.6,77.6v19.4c0,17.8,14.5,32.3,32.3,32.3h172c-2.5-4-4.2-8.6-4.2-13.7V281.7
	L286.3,281.7z M116.5,163.3c-7.8-7.7-18.5-12.5-30.4-12.5H43.1C19.3,150.8,0,170.1,0,193.8v21.5c0,11.9,9.6,21.5,21.5,21.5h44.4
	C70.2,205,89.4,178.2,116.5,163.3z"/>
</svg>
