<!-- Generator: Adobe Illustrator 18.0.0, SVG Export Plug-In  -->
<svg version="1.1"
	 xmlns="http://www.w3.org/2000/svg" xmlns:xlink="http://www.w3.org/1999/xlink" xmlns:a="http://ns.adobe.com/AdobeSVGViewerExtensions/3.0/"
	 x="0px" y="0px" width="436.2px" height="349px" viewBox="0 0 436.2 349" enable-background="new 0 0 436.2 349"
	 xml:space="preserve">
<defs>
</defs>
<path fill="#FC7E00" d="M0,174.5v87.2c0,12.1,9.7,21.8,21.8,21.8h21.8V152.7H21.8C9.7,152.7,0,162.4,0,174.5z M316.2,65.4h-76.3
	V21.8c0-12.1-9.7-21.8-21.8-21.8c-12.1,0-21.8,9.7-21.8,21.8v43.6H120c-30.1,0-54.5,24.4-54.5,54.5v185.4C65.4,329.4,85,349,109,349
	h218.1c24.1,0,43.6-19.6,43.6-43.6V120C370.8,89.8,346.4,65.4,316.2,65.4z M174.5,283.5h-43.6v-21.8h43.6V283.5z M152.7,201.7
	c-15.1,0-27.3-12.2-27.3-27.3c0-15.1,12.2-27.3,27.3-27.3c15.1,0,27.3,12.2,27.3,27.3C179.9,189.5,167.7,201.7,152.7,201.7z
	 M239.9,283.5h-43.6v-21.8h43.6V283.5z M305.3,283.5h-43.6v-21.8h43.6V283.5z M283.5,201.7c-15.1,0-27.3-12.2-27.3-27.3
	c0-15.1,12.2-27.3,27.3-27.3c15.1,0,27.3,12.2,27.3,27.3C310.8,189.5,298.6,201.7,283.5,201.7z M414.4,152.7h-21.8v130.9h21.8
	c12.1,0,21.8-9.7,21.8-21.8v-87.2C436.2,162.4,426.4,152.7,414.4,152.7z"/>
</svg>
