<svg xmlns="http://www.w3.org/2000/svg" viewBox="0 0 215.998 429.414"><defs><style>.a{fill:#fff;}</style></defs><g transform="translate(-1223.002 -444)"><g transform="translate(0 26)"><g transform="translate(1139 412.845)"><path d="M237.6,340.456,192.9,217.168c.534-16.758.925-33.355.925-46.115,0-91.623-45.681-165.9-63.948-165.9S65.927,79.429,65.927,171.049c0,14.1.365,30.352.876,46.253L22.143,340.456c-.979,2.7.891,5.687,3.014,4.815L70.727,326.6a1.914,1.914,0,0,1,1.471,0l11.025,4.52c5.23,7.853,11.562,13.724,18.21,16.105,15.8,5.653,41.645,5.653,57.443,0,6.72-2.4,13.1-8.383,18.313-16.378l10.357-4.243a1.914,1.914,0,0,1,1.471,0l45.57,18.674C236.717,346.143,238.587,343.16,237.6,340.456Z" transform="translate(62.127 0)"/></g><path class="a" d="M54.61-6959.463H5.388c-.221-6.949-.333-12.937-.333-17.8a112.543,112.543,0,0,1,2.9-25.2,113.437,113.437,0,0,1,3.12-11,102.722,102.722,0,0,1,3.788-9.581,65.308,65.308,0,0,1,8.244-13.874c2.678-3.281,5.13-5.087,6.907-5.087s4.229,1.806,6.907,5.087a65.315,65.315,0,0,1,8.244,13.874,102.8,102.8,0,0,1,3.788,9.582,113.43,113.43,0,0,1,3.12,11,112.553,112.553,0,0,1,2.9,25.2c0,4.373-.119,10.36-.355,17.8Z" transform="translate(1300.993 7521.482)"/></g><path d="M1346.325,7827.378s-18.092,11.873-14.134,29.965,32.792,54.276,32.792,54.276,29.954-31.438,35.053-57.668c2.152-11.066-.262-18.376-11.873-26.573S1346.325,7827.378,1346.325,7827.378Z" transform="translate(-34.791 -7038.205)"/></g></svg>